<svg id="Layer_1" data-name="Layer 1" xmlns="http://www.w3.org/2000/svg" viewBox="0 0 47.26 35.4"><defs><style>.cls-1{fill:#fff;stroke:#000;stroke-miterlimit:10;}</style></defs><title>comment-svg</title><path class="cls-1" d="M22.51,30.4a48.71,48.71,0,0,1-8-1.19c-3.11-.73-6.51-1.68-9-3.71a8.15,8.15,0,0,1-2.95-8c.8-3.7,3.61-5.93,7-7a51,51,0,0,1,23-2,40.69,40.69,0,0,1,6.89,1.66A20,20,0,0,1,45.5,13.5c4.27,3.34,3.76,8.2,1,11-2.59,2.63-7.06,3.58-10,4l-11,13v-11C24.5,30.5,23.5,30.47,22.51,30.4Z" transform="translate(-1.88 -7.47)"/></svg>