<svg xmlns="http://www.w3.org/2000/svg" viewBox="0 0 46.28 32.96"><defs><style>.cls-1{fill:#fff;}.cls-2{fill:none;stroke:#000;stroke-miterlimit:10;stroke-width:2px;}</style></defs><title>Asset 1</title><g id="Layer_2" data-name="Layer 2"><g id="Layer_1-2" data-name="Layer 1"><path class="cls-1" d="M10.9,1H30.06S39.64,0,39.64,8.49V31.91"/><path class="cls-2" d="M10.9,1H30.06S39.64,0,39.64,8.49V30.33"/><path d="M33.3,21.31a.66.66,0,0,1,.92.2L39.64,30l5.42-8.52a.66.66,0,0,1,1.12.71l-6,9.39a.67.67,0,0,1-1.12,0l-6-9.39a.68.68,0,0,1-.1-.36A.65.65,0,0,1,33.3,21.31Z"/><path class="cls-1" d="M35.38,31.91H16.22S6.64,33,6.64,24.46V1"/><path class="cls-2" d="M35.38,31.91H16.22S6.64,33,6.64,24.46V2.62"/><path d="M13,11.65a.66.66,0,0,1-.92-.2L6.64,2.93,1.22,11.45a.66.66,0,0,1-.92.2.67.67,0,0,1-.2-.91l6-9.39a.66.66,0,0,1,1.12,0l6,9.39a.64.64,0,0,1,.1.35A.68.68,0,0,1,13,11.65Z"/></g></g></svg>